<svg xmlns="http://www.w3.org/2000/svg" width="16" height="16" fill="none"><g clip-path="url(#a)"><path fill="url(#b)" d="M8 2.25a11.8 11.8 0 0 1-4.75 1.816c0 4.54 1.267 7.868 4.75 9.684 3.483-1.816 4.75-5.145 4.75-9.684A11.8 11.8 0 0 1 8 2.25"/><path fill="url(#c)" d="M8 2.553a11.15 11.15 0 0 1-4.5 1.72c0 4.3 1.2 7.454 4.5 9.174 3.3-1.72 4.5-4.874 4.5-9.174A11.15 11.15 0 0 1 8 2.553"/><path fill="url(#d)" d="M3.65 4.392c1.587-.246 3.11-.964 4.372-1.826L8 2.553a11.15 11.15 0 0 1-4.5 1.72c0 2.368.367 4.385 1.245 6.01C4.05 8.642 3.65 6.638 3.65 4.393Z"/><path fill="url(#e)" d="M8 3.75a8.1 8.1 0 0 1-3.355 1.342c0 3.355.895 5.816 3.355 7.158 2.46-1.342 3.355-3.803 3.355-7.158A8.1 8.1 0 0 1 8 3.75"/><path fill="url(#f)" d="M11.065 8C10.632 9.892 9.682 11.332 8 12.25V8zm-6.42-2.908q-.002 1.594.3 2.908H8V3.75a8.1 8.1 0 0 1-3.355 1.342"/><path fill="url(#g)" d="M8 3.75a8.1 8.1 0 0 1-3.355 1.342c0 3.355.895 5.816 3.355 7.158 2.46-1.342 3.355-3.803 3.355-7.158A8.1 8.1 0 0 1 8 3.75M8 12c-2.316-1.263-3.158-3.579-3.158-6.737A7.6 7.6 0 0 0 8 4a7.6 7.6 0 0 0 3.158 1.263c0 3.158-.842 5.474-3.158 6.737"/><path fill="url(#h)" d="M8 3.75a8.1 8.1 0 0 1-3.355 1.342c0 3.355.895 5.816 3.355 7.158 2.46-1.342 3.355-3.803 3.355-7.158A8.1 8.1 0 0 1 8 3.75M8 12c-2.316-1.263-3.158-3.579-3.158-6.737A7.6 7.6 0 0 0 8 4a7.6 7.6 0 0 0 3.158 1.263c0 3.158-.842 5.474-3.158 6.737"/><path fill="url(#i)" d="M7.25 11.767V4.21a8.1 8.1 0 0 1-2.605.882c0 2.988.713 5.263 2.605 6.675"/></g><defs><linearGradient id="b" x1="3.287" x2="10.664" y1="6.242" y2="8.993" gradientUnits="userSpaceOnUse"><stop offset=".105" stop-color="#D9DDE1"/><stop offset=".545" stop-color="#AAB1B9"/><stop offset="1" stop-color="#6A727C"/></linearGradient><linearGradient id="c" x1="2.165" x2="10.185" y1="5.878" y2="8.794" gradientUnits="userSpaceOnUse"><stop stop-color="#ABB1BA"/><stop offset=".15" stop-color="#BDC3C9"/><stop offset=".59" stop-color="#AAB1B9"/><stop offset="1" stop-color="#7F8894"/></linearGradient><linearGradient id="d" x1="5.579" x2="2.545" y1="5.906" y2="3.949" gradientUnits="userSpaceOnUse"><stop offset=".048" stop-color="#fff" stop-opacity="0"/><stop offset=".831" stop-color="#fff"/></linearGradient><linearGradient id="e" x1="6.944" x2="11.246" y1="6.048" y2="10.496" gradientUnits="userSpaceOnUse"><stop stop-color="#fff"/><stop offset="1" stop-color="#BDBDBD"/></linearGradient><linearGradient id="f" x1="4.821" x2="13.591" y1="6.117" y2="11.311" gradientUnits="userSpaceOnUse"><stop stop-color="#FF7448"/><stop offset=".737" stop-color="#E51E25"/><stop offset=".986" stop-color="#D31321"/></linearGradient><linearGradient id="g" x1="6.019" x2="10.322" y1="5.092" y2="9.54" gradientUnits="userSpaceOnUse"><stop offset=".006" stop-color="#fff" stop-opacity=".5"/><stop offset=".952" stop-color="#fff" stop-opacity="0"/></linearGradient><linearGradient id="h" x1="6.629" x2="11.863" y1="6.289" y2="10.488" gradientUnits="userSpaceOnUse"><stop offset=".048" stop-color="#fff" stop-opacity="0"/><stop offset=".994" stop-color="#590808" stop-opacity=".5"/></linearGradient><linearGradient id="i" x1="4.678" x2="6.85" y1="7.988" y2="7.988" gradientUnits="userSpaceOnUse"><stop stop-color="#fff" stop-opacity="0"/><stop offset=".052" stop-color="#fff" stop-opacity=".042"/><stop offset=".366" stop-color="#fff" stop-opacity=".3"/><stop offset="1" stop-color="#fff" stop-opacity="0"/></linearGradient><clipPath id="a"><path fill="#fff" d="M0 0h16v16H0z"/></clipPath></defs></svg>